<svg width="13" height="14" viewBox="0 0 13 14" fill="none" xmlns="http://www.w3.org/2000/svg">
<path d="M6.32654 0.65409C6.35094 0.448637 6.64906 0.448637 6.67346 0.65409L6.87797 2.37766C7.14205 4.60325 8.89675 6.35795 11.1223 6.62203L12.8459 6.82654C13.0514 6.85094 13.0514 7.14906 12.8459 7.17346L11.1223 7.37797C8.89675 7.64205 7.14205 9.39675 6.87797 11.6223L6.67346 13.3459C6.64906 13.5514 6.35094 13.5514 6.32654 13.3459L6.12203 11.6223C5.85795 9.39675 4.10325 7.64205 1.87766 7.37797L0.15409 7.17346C-0.0513633 7.14906 -0.0513633 6.85094 0.15409 6.82654L1.87766 6.62203C4.10325 6.35795 5.85795 4.60325 6.12203 2.37766L6.32654 0.65409Z" fill="#1C1E1F"/>
</svg>