<svg width="22" height="22" viewBox="0 0 22 22" fill="none" xmlns="http://www.w3.org/2000/svg">
<path d="M13.9167 16.5175C15.6106 14.4468 18.493 13.8396 21.0375 14.2389L21.5692 14.3222L21.2445 14.7514C19.6238 16.8926 16.6346 17.5568 14.101 17.0369L13.5791 16.9299L13.9167 16.5175Z" fill="#1C1E1F"/>
<path d="M14.5767 1.28008C16.3607 2.71445 17.4266 5.09287 16.9839 7.38013L16.8868 7.88171L16.4765 7.57813C14.6472 6.22491 13.4116 3.71292 14.0651 1.44197L14.1994 0.976685L14.5767 1.28008Z" fill="#1C1E1F"/>
<path d="M21.9286 8.64244C21.5783 11.131 19.7907 13.6564 17.2417 14.2187L16.7693 14.3232L16.8557 13.8467C17.3093 11.35 19.0499 9.06845 21.5129 8.29057L21.9998 8.1366L21.9286 8.64244Z" fill="#1C1E1F"/>
<path d="M19.272 3.1747C20.2162 5.35399 19.9293 7.99032 18.4729 9.877L18.1306 10.3199L17.9192 9.80173C17.0291 7.61474 17.251 4.98959 18.7222 3.10493L19.0561 2.67725L19.272 3.1747Z" fill="#1C1E1F"/>
<path d="M3.27749 3.10495C4.74911 4.98962 4.97061 7.61477 4.08051 9.80175L3.86931 10.3201L3.52721 9.87723C2.07057 7.99018 1.78389 5.35403 2.72813 3.17456L2.94397 2.67712L3.27749 3.10495Z" fill="#1C1E1F"/>
<path d="M7.89923 17.0366C5.36556 17.5567 2.37631 16.8925 0.75583 14.7512L0.430908 14.322L0.962648 14.2386C3.50731 13.8393 6.38932 14.4465 8.08387 16.5173L8.42111 16.9296L7.89923 17.0366Z" fill="#1C1E1F"/>
<path d="M7.93501 1.44226C8.58885 3.71303 7.35357 6.22506 5.52417 7.57824L5.11325 7.88182L5.01643 7.38024C4.57421 5.09279 5.63969 2.71441 7.42359 1.28019L7.80115 0.977051L7.93501 1.44226Z" fill="#1C1E1F"/>
<path d="M0.48728 8.29052C2.95 9.06848 4.69093 11.35 5.1445 13.8466L5.23093 14.3231L4.75836 14.2187C2.20911 13.6563 0.421606 11.131 0.0712562 8.64239L0 8.13635L0.48728 8.29052Z" fill="#1C1E1F"/>
<path d="M12.7878 18.8284C13.2025 19.2692 13.6333 19.6936 14.1306 20.0291L14.4732 20.2592L14.166 20.5355C14.039 20.6494 13.9138 20.7643 13.7892 20.8803L13.6352 21.0235L13.442 20.9399C12.2567 20.4282 11.9203 19.1553 10.9999 18.5549C10.0796 19.1553 9.74346 20.4282 8.55805 20.9403L8.36447 21.0239L8.2105 20.8804C8.08596 20.7643 7.96056 20.6496 7.8341 20.5359L7.52743 20.2596L7.86975 20.0295C8.36697 19.694 8.79795 19.2696 9.2126 18.8287C8.64456 19.1099 8.08073 19.434 7.4339 19.5552C6.2789 19.7493 5.04268 19.8185 3.9447 19.3394L3.41382 19.1081L3.89056 18.7792C4.97624 18.0303 6.14171 17.3322 7.49214 17.2249C8.55498 17.1666 9.63256 17.1927 10.6743 17.4328L10.6876 17.4359L10.701 17.4405C10.8977 17.5041 11.1027 17.5041 11.2997 17.4405L11.3128 17.4359L11.3267 17.4328C12.3678 17.1927 13.4455 17.1666 14.5123 17.2249C15.8596 17.3322 17.0247 18.0305 18.1099 18.7792L18.5864 19.1081L18.0557 19.3394C16.9577 19.8187 15.7215 19.7492 14.5636 19.5547C13.9184 19.4335 13.355 19.1096 12.7876 18.8285L12.7878 18.8284Z" fill="#1C1E1F"/>
</svg>
