<svg width="104" height="104" viewBox="0 0 104 104" fill="none" xmlns="http://www.w3.org/2000/svg">
<path d="M58 5C58 2.23858 55.7614 0 53 0H51C48.2386 0 46 2.23858 46 5V41C46 43.7614 43.7614 46 41 46H5C2.23858 46 0 48.2386 0 51V53C0 55.7614 2.23858 58 5 58H41C43.7614 58 46 60.2386 46 63V99C46 101.761 48.2386 104 51 104H53C55.7614 104 58 101.761 58 99V63C58 60.2386 60.2386 58 63 58H99C101.761 58 104 55.7614 104 53V51C104 48.2386 101.761 46 99 46H63C60.2386 46 58 43.7614 58 41V5Z" fill="#E6E2D6"/>
</svg>
