<svg width="11" height="22" viewBox="0 0 11 22" fill="none" xmlns="http://www.w3.org/2000/svg">
<g clip-path="url(#clip0_1_162)">
<path d="M3.27749 3.10483C4.74911 4.9895 4.97061 7.61465 4.08051 9.80163L3.86931 10.32L3.52721 9.87711C2.07057 7.99006 1.78389 5.35391 2.72813 3.17444L2.94397 2.677L3.27749 3.10483Z" fill="#1C1E1F"/>
<path d="M7.89923 17.0365C5.36556 17.5566 2.37631 16.8924 0.75583 14.7511L0.430908 14.3219L0.962648 14.2385C3.50731 13.8392 6.38932 14.4464 8.08387 16.5172L8.42111 16.9294L7.89923 17.0365Z" fill="#1C1E1F"/>
<path d="M7.93501 1.44201C8.58885 3.71278 7.35357 6.22482 5.52417 7.578L5.11325 7.88158L5.01643 7.38C4.57421 5.09255 5.63969 2.71417 7.42359 1.27995L7.80115 0.976807L7.93501 1.44201Z" fill="#1C1E1F"/>
<path d="M0.48728 8.2904C2.95 9.06836 4.69093 11.3499 5.1445 13.8465L5.23093 14.323L4.75836 14.2185C2.20911 13.6562 0.421606 11.1308 0.0712562 8.64227L0 8.13623L0.48728 8.2904Z" fill="#1C1E1F"/>
<path d="M12.7878 18.8282C13.2025 19.2691 13.6333 19.6935 14.1306 20.029L14.4732 20.2591L14.166 20.5354C14.039 20.6493 13.9138 20.7642 13.7892 20.8801L13.6352 21.0234L13.442 20.9398C12.2567 20.4281 11.9203 19.1552 10.9999 18.5548C10.0796 19.1552 9.74346 20.4281 8.55805 20.9402L8.36447 21.0237L8.2105 20.8803C8.08596 20.7641 7.96056 20.6495 7.8341 20.5358L7.52743 20.2595L7.86975 20.0294C8.36697 19.6939 8.79795 19.2695 9.2126 18.8286C8.64456 19.1098 8.08073 19.4338 7.4339 19.5551C6.2789 19.7491 5.04268 19.8184 3.9447 19.3392L3.41382 19.108L3.89056 18.7791C4.97624 18.0302 6.14171 17.3321 7.49214 17.2248C8.55498 17.1665 9.63256 17.1926 10.6743 17.4327L10.6876 17.4357L10.701 17.4404C10.8977 17.504 11.1027 17.504 11.2997 17.4404L11.3128 17.4357L11.3267 17.4327C12.3678 17.1926 13.4455 17.1665 14.5123 17.2248C15.8596 17.3321 17.0247 18.0304 18.1099 18.7791L18.5864 19.108L18.0557 19.3392C16.9577 19.8186 15.7215 19.7491 14.5636 19.5546C13.9184 19.4333 13.355 19.1095 12.7876 18.8283L12.7878 18.8282Z" fill="#1C1E1F"/>
</g>
<defs>
<clipPath id="clip0_1_162">
<rect width="11" height="22" fill="white"/>
</clipPath>
</defs>
</svg>
