<svg width="11" height="22" viewBox="0 0 11 22" fill="none" xmlns="http://www.w3.org/2000/svg">
<path d="M2.91666 16.5174C4.61062 14.4467 7.49302 13.8395 10.0375 14.2388L10.5692 14.3221L10.2445 14.7513C8.62384 16.8924 5.63463 17.5567 3.10096 17.0367L2.5791 16.9298L2.91666 16.5174Z" fill="#1C1E1F"/>
<path d="M3.57669 1.27996C5.36068 2.71432 6.4266 5.09274 5.98385 7.38001L5.88681 7.88159L5.47653 7.57801C3.64721 6.22479 2.41157 3.71279 3.06515 1.44184L3.19935 0.976562L3.57669 1.27996Z" fill="#1C1E1F"/>
<path d="M10.9286 8.64231C10.5783 11.1309 8.79073 13.6563 6.24166 14.2186L5.76929 14.3231L5.85572 13.8465C6.30933 11.3499 8.04986 9.06833 10.5129 8.29045L10.9998 8.13647L10.9286 8.64231Z" fill="#1C1E1F"/>
<path d="M8.27197 3.17446C9.21621 5.35374 8.92931 7.99008 7.47289 9.87676L7.13057 10.3196L6.91917 9.80148C6.02907 7.6145 6.25101 4.98935 7.72219 3.10468L8.05613 2.677L8.27197 3.17446Z" fill="#1C1E1F"/>
<path d="M1.78778 18.8282C2.20249 19.2691 2.63325 19.6935 3.13062 20.029L3.47316 20.2591L3.166 20.5354C3.03903 20.6493 2.91385 20.7642 2.78916 20.8801L2.63519 21.0234L2.44205 20.9398C1.25669 20.4281 0.920309 19.1552 -0.000133991 18.5548C-0.920376 19.1552 -1.25654 20.4281 -2.44195 20.9402L-2.63553 21.0237L-2.7895 20.8803C-2.91404 20.7641 -3.03944 20.6495 -3.1659 20.5358L-3.47257 20.2595L-3.13025 20.0294C-2.63303 19.6939 -2.20205 19.2695 -1.7874 18.8286C-2.35544 19.1098 -2.91927 19.4338 -3.5661 19.5551C-4.7211 19.7491 -5.95732 19.8184 -7.0553 19.3392L-7.58618 19.108L-7.10944 18.7791C-6.02376 18.0302 -4.85829 17.3321 -3.50786 17.2248C-2.44502 17.1665 -1.36744 17.1926 -0.325742 17.4327L-0.31235 17.4357L-0.298958 17.4404C-0.102297 17.504 0.102726 17.504 0.299663 17.4404L0.31284 17.4357L0.326733 17.4327C1.36779 17.1926 2.44551 17.1665 3.51233 17.2248C4.85961 17.3321 6.02473 18.0304 7.10988 18.7791L7.5864 19.108L7.05574 19.3392C5.95774 19.8186 4.72154 19.7491 3.56361 19.5546C2.91837 19.4333 2.35497 19.1095 1.78757 18.8283L1.78778 18.8282Z" fill="#1C1E1F"/>
</svg>
